<svg width="1446" height="749" viewBox="0 0 1446 749" fill="none" xmlns="http://www.w3.org/2000/svg">
<path d="M1433.41 35.3618C1436.75 42.3495 1437.05 51.7653 1432.59 64.4434C1428.11 77.1577 1419.14 92.1751 1405.52 109.24C1378.3 143.332 1333.97 183.803 1275.53 228.031C1158.79 316.387 987.47 418.46 789.25 513.133C591.03 607.807 403.959 676.91 261.864 712.179C190.735 729.833 131.397 738.876 87.774 738.618C65.9385 738.488 48.6208 736.026 35.9168 731.518C23.249 727.024 16.1182 720.867 12.7807 713.879C9.44329 706.892 9.13642 697.476 13.6021 684.798C18.0806 672.083 27.0496 657.066 40.6728 640.001C67.8889 605.909 112.217 565.439 170.654 521.21C287.394 432.855 458.718 330.782 656.938 236.108C855.158 141.435 1042.23 72.3312 1184.32 37.0626C1255.45 19.4081 1314.79 10.3651 1358.41 10.6234C1380.25 10.7527 1397.57 13.2151 1410.27 17.7227C1422.94 22.2175 1430.07 28.3741 1433.41 35.3618Z" stroke="url(#paint0_linear_46_38)" stroke-opacity="0.7" stroke-width="20"/>
<defs>
<linearGradient id="paint0_linear_46_38" x1="-2.0277" y1="733.734" x2="1447.39" y2="-4.12486" gradientUnits="userSpaceOnUse">
<stop stop-color="#00BFD9"/>
<stop offset="1" stop-color="#00CFEC"/>
</linearGradient>
</defs>
</svg>
