<svg width="1432" height="742" viewBox="0 0 1432 742" fill="none" xmlns="http://www.w3.org/2000/svg">
<path d="M1419.21 35.0923C1422.5 41.9793 1422.81 51.2732 1418.39 63.8112C1413.96 76.3853 1405.09 91.2446 1391.6 108.137C1364.66 141.883 1320.78 181.947 1262.92 225.737C1147.34 313.214 977.717 414.275 781.46 508.012C585.203 601.748 399.986 670.166 259.303 705.084C188.88 722.563 130.137 731.515 86.9571 731.259C65.3431 731.131 48.2087 728.693 35.6448 724.235C23.1169 719.79 16.0828 713.708 12.7934 706.821C9.50399 699.934 9.19434 690.64 13.6107 678.102C18.0398 665.528 26.9129 650.669 40.3979 633.777C67.3377 600.031 111.221 559.966 169.077 516.177C284.657 428.699 454.283 327.638 650.54 233.902C846.797 140.166 1032.01 71.7476 1172.7 36.8296C1243.12 19.3503 1301.86 10.3988 1345.04 10.6545C1366.66 10.7825 1383.79 13.22 1396.36 17.678C1408.88 22.1231 1415.92 28.2052 1419.21 35.0923Z" stroke="url(#paint0_linear_46_38)" stroke-opacity="0.7" stroke-width="20"/>
<defs>
<linearGradient id="paint0_linear_46_38" x1="-1.9579" y1="726.522" x2="1433.14" y2="-4.04686" gradientUnits="userSpaceOnUse">
<stop stop-color="#00BFD9"/>
<stop offset="1" stop-color="#00CFEC"/>
</linearGradient>
</defs>
</svg>
