<svg width="252" height="198" viewBox="0 0 252 198" fill="none" xmlns="http://www.w3.org/2000/svg">
<rect x="96.5735" y="23" width="57" height="76" fill="black"/>
<path d="M179.88 76.5415C172.404 106.568 142.013 124.796 112.032 117.323C82.044 109.903 63.7775 79.4395 71.2675 49.49C78.726 19.4705 109.134 1.204 139.098 8.6765C169.103 16.17 187.37 46.543 179.88 76.5625V76.5415ZM150.256 55.0165C151.365 47.5965 145.695 43.589 137.932 40.8905L140.452 30.842L134.306 29.2915L131.867 39.137C130.26 38.717 128.587 38.353 126.907 37.9715L129.354 28.035L123.19 26.5055L120.674 36.603C119.344 36.2915 118.052 35.9835 116.754 35.6755L108.298 33.558L106.656 40.1415C106.656 40.1415 111.217 41.1775 111.105 41.2335C113.607 41.874 114.059 43.491 113.989 44.807L107.097 72.4395C106.751 73.2095 105.967 74.34 104.238 73.899C104.294 73.9865 99.754 72.7895 99.754 72.7895L96.674 79.821L104.658 81.809L108.994 82.9395L106.46 93.17L112.624 94.682L115.158 84.5635C116.834 85.0395 118.437 85.456 120.04 85.841L117.674 95.8825L123.834 97.433L126.368 87.2095C136.83 89.194 144.708 88.41 148.026 78.932C150.686 71.2915 147.876 66.9025 142.356 64.022C146.329 63.1085 149.356 60.466 150.193 55.0165H150.256ZM136.2 74.7215C134.324 82.376 121.472 78.2215 117.3 77.182L120.67 63.658C124.846 64.7325 138.188 66.7905 136.2 74.7215ZM138.118 54.9255C136.382 61.887 125.7 58.3695 122.217 57.491L125.283 45.171C128.745 46.0075 139.917 47.6105 138.118 54.9045V54.9255Z" fill="#0093A7"/>
<path d="M57.5735 67C20.8708 85.5543 6.30582 99.4315 9.99977 109.17C15.1904 122.854 71.3061 114.258 135.338 89.9695C199.369 65.6812 247.069 34.8984 241.879 21.2142C238.491 12.2836 213.886 12.9969 179.074 21.2142" stroke="url(#paint0_linear_1_14)" stroke-width="17" stroke-linecap="round"/>
<path d="M45.2756 162.818H52.1023L59.3125 180.409H59.6193L66.8295 162.818H73.6562V189H68.2869V171.959H68.0696L61.294 188.872H57.6378L50.8622 171.895H50.6449V189H45.2756V162.818ZM87.0636 189.384C85.0437 189.384 83.305 188.974 81.8477 188.156C80.3988 187.33 79.2823 186.162 78.4982 184.653C77.7141 183.136 77.3221 181.342 77.3221 179.271C77.3221 177.251 77.7141 175.479 78.4982 173.953C79.2823 172.428 80.386 171.239 81.8093 170.386C83.2411 169.534 84.9201 169.108 86.8462 169.108C88.1417 169.108 89.3477 169.317 90.4641 169.734C91.5891 170.143 92.5692 170.761 93.4045 171.588C94.2482 172.415 94.9045 173.455 95.3732 174.707C95.842 175.952 96.0764 177.409 96.0764 179.08V180.575H79.4954V177.2H90.9499C90.9499 176.416 90.7795 175.722 90.4386 175.116C90.0977 174.511 89.6246 174.038 89.0195 173.697C88.4229 173.348 87.7283 173.173 86.9357 173.173C86.109 173.173 85.3761 173.365 84.7369 173.749C84.1062 174.124 83.6119 174.631 83.2539 175.27C82.896 175.901 82.7127 176.604 82.7042 177.379V180.588C82.7042 181.56 82.8832 182.399 83.2411 183.107C83.6076 183.814 84.1232 184.359 84.788 184.743C85.4528 185.126 86.2411 185.318 87.1531 185.318C87.7582 185.318 88.3121 185.233 88.815 185.062C89.3178 184.892 89.7482 184.636 90.1062 184.295C90.4641 183.955 90.7369 183.537 90.9244 183.043L95.9613 183.375C95.7056 184.585 95.1815 185.642 94.3889 186.545C93.6048 187.44 92.5906 188.139 91.3462 188.642C90.1104 189.136 88.6829 189.384 87.0636 189.384ZM110.075 169.364V173.455H98.2496V169.364H110.075ZM100.934 164.659H106.38V182.966C106.38 183.469 106.457 183.861 106.61 184.142C106.764 184.415 106.977 184.607 107.25 184.717C107.531 184.828 107.855 184.884 108.221 184.884C108.477 184.884 108.733 184.862 108.988 184.82C109.244 184.768 109.44 184.73 109.576 184.705L110.433 188.757C110.16 188.842 109.777 188.94 109.282 189.051C108.788 189.17 108.187 189.243 107.48 189.268C106.167 189.32 105.017 189.145 104.028 188.744C103.048 188.344 102.285 187.722 101.74 186.878C101.194 186.034 100.926 184.969 100.934 183.682V164.659ZM119.222 189.371C117.969 189.371 116.853 189.153 115.873 188.719C114.892 188.276 114.117 187.624 113.546 186.763C112.983 185.893 112.702 184.811 112.702 183.516C112.702 182.425 112.902 181.509 113.303 180.767C113.703 180.026 114.249 179.429 114.939 178.977C115.63 178.526 116.414 178.185 117.292 177.955C118.178 177.724 119.107 177.562 120.078 177.469C121.221 177.349 122.141 177.239 122.84 177.136C123.539 177.026 124.046 176.864 124.361 176.651C124.676 176.437 124.834 176.122 124.834 175.705V175.628C124.834 174.818 124.578 174.192 124.067 173.749C123.564 173.305 122.848 173.084 121.919 173.084C120.939 173.084 120.159 173.301 119.58 173.736C119 174.162 118.617 174.699 118.429 175.347L113.392 174.938C113.648 173.744 114.151 172.713 114.901 171.844C115.651 170.966 116.618 170.293 117.803 169.824C118.996 169.347 120.377 169.108 121.945 169.108C123.036 169.108 124.08 169.236 125.077 169.491C126.083 169.747 126.973 170.143 127.749 170.68C128.533 171.217 129.151 171.908 129.603 172.751C130.054 173.587 130.28 174.588 130.28 175.756V189H125.115V186.277H124.962C124.647 186.891 124.225 187.432 123.696 187.901C123.168 188.361 122.533 188.723 121.792 188.987C121.05 189.243 120.194 189.371 119.222 189.371ZM120.782 185.612C121.583 185.612 122.29 185.455 122.904 185.139C123.517 184.815 123.999 184.381 124.348 183.835C124.698 183.29 124.873 182.672 124.873 181.982V179.898C124.702 180.009 124.468 180.111 124.169 180.205C123.88 180.29 123.551 180.371 123.185 180.447C122.819 180.516 122.452 180.58 122.086 180.639C121.719 180.69 121.387 180.737 121.088 180.78C120.449 180.874 119.891 181.023 119.414 181.227C118.936 181.432 118.566 181.709 118.301 182.058C118.037 182.399 117.905 182.825 117.905 183.337C117.905 184.078 118.174 184.645 118.711 185.037C119.256 185.42 119.946 185.612 120.782 185.612ZM142.94 189V162.818H153.269C155.255 162.818 156.947 163.197 158.344 163.956C159.742 164.706 160.808 165.75 161.54 167.088C162.282 168.418 162.653 169.952 162.653 171.69C162.653 173.429 162.278 174.963 161.528 176.293C160.778 177.622 159.691 178.658 158.268 179.399C156.853 180.141 155.14 180.511 153.129 180.511H146.545V176.075H152.234C153.299 176.075 154.177 175.892 154.867 175.526C155.566 175.151 156.086 174.635 156.427 173.979C156.776 173.314 156.951 172.551 156.951 171.69C156.951 170.821 156.776 170.062 156.427 169.415C156.086 168.759 155.566 168.251 154.867 167.893C154.168 167.527 153.282 167.344 152.208 167.344H148.475V189H142.94ZM171.592 162.818V189H166.146V162.818H171.592ZM181.554 189.371C180.301 189.371 179.185 189.153 178.205 188.719C177.224 188.276 176.449 187.624 175.878 186.763C175.315 185.893 175.034 184.811 175.034 183.516C175.034 182.425 175.234 181.509 175.635 180.767C176.036 180.026 176.581 179.429 177.271 178.977C177.962 178.526 178.746 178.185 179.624 177.955C180.51 177.724 181.439 177.562 182.411 177.469C183.553 177.349 184.473 177.239 185.172 177.136C185.871 177.026 186.378 176.864 186.693 176.651C187.009 176.437 187.166 176.122 187.166 175.705V175.628C187.166 174.818 186.911 174.192 186.399 173.749C185.896 173.305 185.18 173.084 184.251 173.084C183.271 173.084 182.491 173.301 181.912 173.736C181.332 174.162 180.949 174.699 180.761 175.347L175.724 174.938C175.98 173.744 176.483 172.713 177.233 171.844C177.983 170.966 178.95 170.293 180.135 169.824C181.328 169.347 182.709 169.108 184.277 169.108C185.368 169.108 186.412 169.236 187.409 169.491C188.415 169.747 189.305 170.143 190.081 170.68C190.865 171.217 191.483 171.908 191.935 172.751C192.386 173.587 192.612 174.588 192.612 175.756V189H187.447V186.277H187.294C186.979 186.891 186.557 187.432 186.028 187.901C185.5 188.361 184.865 188.723 184.124 188.987C183.382 189.243 182.526 189.371 181.554 189.371ZM183.114 185.612C183.915 185.612 184.622 185.455 185.236 185.139C185.849 184.815 186.331 184.381 186.68 183.835C187.03 183.29 187.205 182.672 187.205 181.982V179.898C187.034 180.009 186.8 180.111 186.501 180.205C186.212 180.29 185.884 180.371 185.517 180.447C185.151 180.516 184.784 180.58 184.418 180.639C184.051 180.69 183.719 180.737 183.42 180.78C182.781 180.874 182.223 181.023 181.746 181.227C181.268 181.432 180.898 181.709 180.634 182.058C180.369 182.399 180.237 182.825 180.237 183.337C180.237 184.078 180.506 184.645 181.043 185.037C181.588 185.42 182.278 185.612 183.114 185.612ZM196.837 189V169.364H202.117V172.79H202.322C202.68 171.571 203.281 170.651 204.124 170.028C204.968 169.398 205.94 169.082 207.039 169.082C207.312 169.082 207.606 169.099 207.921 169.134C208.237 169.168 208.513 169.214 208.752 169.274V174.107C208.496 174.03 208.143 173.962 207.691 173.902C207.239 173.842 206.826 173.812 206.451 173.812C205.65 173.812 204.934 173.987 204.303 174.337C203.681 174.678 203.187 175.155 202.82 175.768C202.462 176.382 202.283 177.089 202.283 177.891V189H196.837Z" fill="#0093A7"/>
<defs>
<linearGradient id="paint0_linear_1_14" x1="140.101" y1="-39.0631" x2="137.101" y2="142.937" gradientUnits="userSpaceOnUse">
<stop/>
<stop offset="1" stop-color="#00E0FF"/>
</linearGradient>
</defs>
</svg>
